<svg xmlns="http://www.w3.org/2000/svg" xmlns:xlink="http://www.w3.org/1999/xlink" width="179.907" height="135.997" viewBox="0 0 179.907 135.997"><defs><style>.a{fill:#4062b2;}.b{fill:url(#c);}.c{fill:#203159;}.d{fill:url(#f);}.e{fill:url(#g);}.f{fill:url(#h);}.g{fill:url(#i);}.h{fill:#fff;}.i{fill:url(#j);}.j{fill:url(#k);}.k{fill:url(#l);}.l{fill:url(#m);}.m{filter:url(#d);}.n{filter:url(#a);}</style><filter id="a" x="0" y="9.57" width="179.907" height="126.427" filterUnits="userSpaceOnUse"><feOffset input="SourceAlpha"/><feGaussianBlur stdDeviation="10" result="b"/><feFlood flood-color="#203159" flood-opacity="0.698"/><feComposite operator="in" in2="b"/><feComposite in="SourceGraphic"/></filter><radialGradient id="c" cx="0.5" cy="0.5" r="0.5" gradientTransform="translate(1 0) rotate(90)" gradientUnits="objectBoundingBox"><stop offset="0" stop-color="#ffca3e"/><stop offset="0.508" stop-color="#fec73d"/><stop offset="0.723" stop-color="#fdc03d"/><stop offset="0.882" stop-color="#fcb43d"/><stop offset="1" stop-color="#faa53d"/></radialGradient><filter id="d" x="8.174" y="0" width="124.372" height="124.372" filterUnits="userSpaceOnUse"><feOffset input="SourceAlpha"/><feGaussianBlur stdDeviation="10" result="e"/><feFlood flood-color="#203159" flood-opacity="0.596"/><feComposite operator="in" in2="e"/><feComposite in="SourceGraphic"/></filter><radialGradient id="f" cx="0.776" cy="0.535" r="0.943" gradientTransform="translate(0.543 -0.378) rotate(41.123)" gradientUnits="objectBoundingBox"><stop offset="0" stop-color="#203159"/><stop offset="1" stop-color="#4062b2"/></radialGradient><linearGradient id="g" x1="0.5" y1="0.088" x2="0.5" y2="0.574" gradientUnits="objectBoundingBox"><stop offset="0" stop-color="#203159" stop-opacity="0"/><stop offset="1" stop-color="#203159"/></linearGradient><radialGradient id="h" cx="0.165" cy="0.828" r="3.957" gradientTransform="matrix(0.889, -0.459, 0.387, 0.75, -0.302, 0.283)" gradientUnits="objectBoundingBox"><stop offset="0" stop-color="#203159"/><stop offset="0.132" stop-color="#243764"/><stop offset="0.686" stop-color="#4062b2"/><stop offset="1" stop-color="#4062b2"/></radialGradient><radialGradient id="i" cx="1" cy="0.56" r="1.976" gradientTransform="matrix(-0.837, -0.548, 0.538, -0.822, 1.535, 1.569)" gradientUnits="objectBoundingBox"><stop offset="0" stop-color="#203159"/><stop offset="0.415" stop-color="#4062b2"/><stop offset="1" stop-color="#4062b2"/></radialGradient><radialGradient id="j" cx="0.5" cy="0.5" r="0.497" gradientTransform="translate(1.005 0.045) rotate(90)" gradientUnits="objectBoundingBox"><stop offset="0" stop-color="#d1eefc" stop-opacity="0"/><stop offset="0.344" stop-color="#d1eefc" stop-opacity="0"/><stop offset="1" stop-color="#d1eefc"/></radialGradient><linearGradient id="k" x1="0.5" y1="0.088" x2="0.5" y2="0.462" gradientUnits="objectBoundingBox"><stop offset="0" stop-color="#fff" stop-opacity="0"/><stop offset="1" stop-color="#fff"/></linearGradient><radialGradient id="l" cx="0.293" cy="0.833" r="0.989" gradientTransform="matrix(0.624, -0.782, 0.782, 0.624, -0.285, 0.19)" gradientUnits="objectBoundingBox"><stop offset="0" stop-color="#fff"/><stop offset="0.351" stop-color="#fff"/><stop offset="1" stop-color="#d1eefc"/></radialGradient><radialGradient id="m" cx="0.847" cy="0.668" r="0.882" gradientTransform="matrix(-0.929, -0.37, 0.363, -0.913, 1.391, 1.591)" gradientUnits="objectBoundingBox"><stop offset="0" stop-color="#fff"/><stop offset="0.415" stop-color="#fff"/><stop offset="1" stop-color="#d1eefc"/></radialGradient></defs><g transform="translate(30 30)"><g class="n" transform="matrix(1, 0, 0, 1, -30, -30)"><path class="a" d="M82.245,66.427H23.179a23.1,23.1,0,1,1,0-46.192q.949,0,1.88.075A28.7,28.7,0,0,1,69.75,10.666q.651.045,1.286.144A18.626,18.626,0,0,1,87.931,0h.11A18.567,18.567,0,0,1,93.7.911h0l.092.03.007,0,.083.028L93.9.978,93.969,1l.028.01.059.02.041.014.054.019.043.015.05.018.048.017.042.015.057.021.033.012.065.024.028.011.069.026.027.01.071.027.02.008.078.031.007,0,.089.036h0A18.647,18.647,0,0,1,105.793,13.4v0l.028.1v0l.027.1,0,.008.025.092,0,.012.024.089,0,.014.023.086,0,.018.021.082.006.023.02.079.006.025.019.077.006.027.018.074.008.033.016.069.008.035.015.067.009.04.014.062.009.043.013.059.01.047.012.056.01.048.011.056.01.052.01.051.011.054.009.049.011.058.008.046.011.059.008.045.011.061.007.043.011.063.007.042.011.067.006.037.011.07.005.035.011.071.005.034.011.072,0,.023c.093,0,.185,0,.278,0,.11,0,.219,0,.329,0s.223,0,.335,0a12.621,12.621,0,1,1-1.955,25.092v.15H99.678A18.6,18.6,0,0,1,82.245,66.427Z" transform="translate(30 39.57)"/></g><g class="m" transform="matrix(1, 0, 0, 1, -30, -30)"><circle class="b" cx="32.186" cy="32.186" r="32.186" transform="translate(38.17 30)"/></g><g transform="translate(53.332 9.57)"><rect class="c" width="37.332" height="16" transform="translate(14.666 25.332)"/><circle class="c" cx="18.666" cy="18.666" r="18.666" transform="translate(16)"/><circle class="d" cx="18.666" cy="18.666" r="18.666" transform="translate(16)"/><rect class="e" width="38.666" height="22.666" transform="translate(14.666 18.666)"/><circle class="c" cx="15.331" cy="15.331" r="15.331" transform="translate(0 10.666)"/><circle class="c" cx="12.666" cy="12.666" r="12.666" transform="translate(41.332 15.999)"/><circle class="f" cx="12.666" cy="12.666" r="12.666" transform="translate(41.332 15.999)"/><path class="g" d="M15.331,0A15.331,15.331,0,1,1,0,15.331,15.331,15.331,0,0,1,15.331,0Z" transform="translate(0 10.666)"/></g><g transform="translate(0 13.096)"><rect class="h" width="59.066" height="26.264" transform="translate(23.178 36.638)"/><ellipse class="h" cx="28.08" cy="28.025" rx="28.08" ry="28.025" transform="translate(23.178 0.41)"/><ellipse class="i" cx="28.606" cy="28.55" rx="28.606" ry="28.55" transform="translate(22.448)"/><rect class="j" width="59.066" height="34.407" transform="translate(23.178 28.495)"/><circle class="h" cx="23.178" cy="23.178" r="23.178" transform="translate(0 16.545)"/><circle class="h" cx="18.662" cy="18.662" r="18.662" transform="translate(63.582 25.578)"/><circle class="k" cx="18.662" cy="18.662" r="18.662" transform="translate(63.582 25.578)"/><circle class="l" cx="23.178" cy="23.178" r="23.178" transform="translate(0 16.545)"/></g></g></svg>